<?xml version="1.0" encoding="utf-8"?>
<!-- Generator: Adobe Illustrator 22.1.0, SVG Export Plug-In . SVG Version: 6.00 Build 0)  -->
<svg version="1.1" id="Ebene_1" xmlns="http://www.w3.org/2000/svg" xmlns:xlink="http://www.w3.org/1999/xlink" x="0px" y="0px"
	 viewBox="0 0 126 34.9" style="enable-background:new 0 0 126 34.9;" xml:space="preserve">
<style type="text/css">
	.st0{fill:#FFFFFF;}
	.st1{fill:none;stroke:#FFFFFF;stroke-width:2;stroke-linecap:round;stroke-linejoin:bevel;stroke-miterlimit:10;}
	.st2{fill:none;stroke:#FFFFFF;stroke-width:2;stroke-linecap:round;stroke-miterlimit:10;}
	.st3{fill:#231F20;stroke:#FFFFFF;stroke-width:2;stroke-linecap:round;stroke-miterlimit:10;}
</style>
<title>fb_white</title>
<path class="st0" d="M3.4,1.3c-1.1,0-2.1,0.9-2.1,2.1v19.4h5.5v-8.4h7.8c1.1,0,2.1-0.9,2.1-2.1V9.9H6.8V6.7c0-0.6,0.4-1,1-1h9.3
	c1.1,0,2.1-0.9,2.1-2.1V1.3H3.4z"/>
<path class="st0" d="M28.1,18.3c-0.6,0-1-0.4-1-1V3.4c0-1.1-0.9-2.1-2.1-2.1c0,0,0,0,0,0h-3.5v19.4c0,1.1,0.9,2.1,2.1,2.1h11.3
	c1.1,0,2.1-0.9,2.1-2.1v-2.3H28.1z"/>
<path class="st0" d="M44.8,22.7h-5.5V11.5c0-1.1,0.9-2.1,2.1-2.1h3.4L44.8,22.7z"/>
<path class="st0" d="M42.8,7.5h-3.4V3.3c0-1.1,0.9-2.1,2.1-2.1h1.4c1.1,0,2.1,0.9,2.1,2.1v2.1C44.8,6.5,43.9,7.5,42.8,7.5"/>
<path class="st0" d="M80,19.2h-3.8c-1.1,0-2-0.9-2-2v-3.6H80c1.5,0,2.8,1.2,2.8,2.8C82.8,18,81.5,19.2,80,19.2 M74.2,4.8h5.2
	c1.4,0,2.5,1.1,2.5,2.5s-1.1,2.5-2.5,2.5H76c-1,0-1.8-0.8-1.8-1.8V4.8z M85.9,12.2c-0.1-0.1-0.4-0.4-0.5-0.4c1-1.1,1.6-2.7,1.5-4.2
	c0-3.9-2.5-6.2-6.4-6.2h-8.4c-1.1,0-2,0.9-2.1,2.1v17.3c0,1.1,0.9,2,2.1,2h9.4c3.9,0,6.3-2.3,6.3-6.2C87.6,14.9,87,13.3,85.9,12.2"
	/>
<path class="st0" d="M106.8,1.3h-2.4c-1.1,0-2,0.9-2,2V16c0,1.8-1.3,3-3.4,3h-1c-2.2,0-3.4-1.2-3.4-3V1.3h-2.4c-1.1,0-2,0.9-2,2
	v13.4c0,3.8,2.6,6.3,7.1,6.3h2.6c4.5,0,7.1-2.5,7.1-6.3L106.8,1.3z"/>
<path class="st0" d="M115.4,5.6h6.9c1.1,0,2-0.9,2.1-2V1.3h-9c-3.6,0.1-6.4,3-6.4,6.5c0,3.5,2.9,6.4,6.4,6.3h2.8
	c1.1,0.1,2,1.1,1.9,2.2c-0.1,1-0.9,1.9-1.9,1.9h-9v2.3c0,1.1,0.9,2,2.1,2h7c3.6-0.1,6.4-3,6.4-6.6c0-3.5-2.8-6.3-6.3-6.3h-2.9
	c-1.1-0.1-2-1.1-1.9-2.2C113.6,6.5,114.5,5.7,115.4,5.6"/>
<path class="st0" d="M65.7,18.9L62,13.8l-3.2,4.4l2.7,3.8c0.8,1.1,2.4,1.4,3.6,0.6h0.1C66.3,21.7,66.5,20.1,65.7,18.9"/>
<path class="st0" d="M60.7,12l-3.2-4.4l-4-5.5c-0.8-1.1-2.4-1.4-3.6-0.6h-0.1c-1.1,0.8-1.4,2.4-0.6,3.6l5,6.9l-5,6.9
	c-0.8,1.1-0.6,2.7,0.6,3.6h0.1c1.1,0.8,2.7,0.6,3.6-0.6l3-4.1L60.7,12z"/>
<path class="st0" d="M65.1,1.5L65.1,1.5c-1.2-0.8-2.8-0.6-3.6,0.6l-2.7,3.7l3.2,4.4l3.7-5.1C66.5,4,66.2,2.4,65.1,1.5"/>
<polyline class="st1" points="29.6,25.7 25.3,34 21.6,25.7 "/>
<polyline class="st1" points="38.6,25.7 32.4,25.7 32.4,33.5 38.6,33.5 "/>
<line class="st2" x1="32.4" y1="29.6" x2="38.6" y2="29.6"/>
<polyline class="st1" points="42.1,33.5 42.1,25.7 47.9,25.7 45.9,29.8 47.8,33.5 "/>
<line class="st1" x1="42.1" y1="29.8" x2="45.9" y2="29.8"/>
<line class="st3" x1="51.3" y1="25.7" x2="51.3" y2="33.5"/>
<line class="st3" x1="55.8" y1="25.7" x2="55.8" y2="33.5"/>
<line class="st3" x1="51.3" y1="29.8" x2="55.8" y2="29.8"/>
<polyline class="st1" points="58.8,33.5 62.1,25.1 65.6,33.5 "/>
<path class="st0" d="M70.9,32.4c-0.2,0-0.5-0.2-0.5-0.5v-6.3c0-0.5-0.4-0.9-0.9-0.9c0,0,0,0,0,0h-1.6v8.7c0,0.5,0.4,0.9,0.9,0.9h5.1
	c0.5,0,0.9-0.4,0.9-0.9v-1.1H70.9z"/>
<polyline class="st1" points="83.5,25.7 77.3,25.7 77.3,33.5 83.5,33.5 "/>
<line class="st2" x1="77.3" y1="29.6" x2="83.5" y2="29.6"/>
<path class="st0" d="M86.7,34.5h1.1c0.5,0,0.9-0.4,0.9-0.9v-5.7c0-0.8,0.6-1.4,1.5-1.4h0.5c1,0,1.5,0.6,1.5,1.4v6.6h1.1
	c0.5,0,0.9-0.4,0.9-0.9v-6.1c0-1.7-1.2-2.8-3.2-2.8h-1.2c-2,0-3.2,1.1-3.2,2.8L86.7,34.5z"/>
<path class="st0" d="M88.7,30.5v-5c0-0.4-0.3-0.7-0.7-0.7c0,0,0,0,0,0h-1.2v7"/>
</svg>
