<?xml version="1.0" encoding="utf-8"?>
<!-- Generator: Adobe Illustrator 22.1.0, SVG Export Plug-In . SVG Version: 6.00 Build 0)  -->
<svg version="1.1" id="Layer_1" xmlns="http://www.w3.org/2000/svg" xmlns:xlink="http://www.w3.org/1999/xlink" x="0px" y="0px"
	 viewBox="0 0 334.5 367.4" style="enable-background:new 0 0 334.5 367.4;" xml:space="preserve">
<style type="text/css">
	.st0{fill:#7DC242;}
</style>
<path class="st0" d="M166.7,77.5c0.9-1.1,1.8-2.2,2.7-3.2c1.9-2.3,3.7-4.6,5.5-6.9c3.5-4.5,7.4-8.6,11.5-12.6
	c4.9-4.8,10.5-8.6,16.7-11.6c3.9-1.8,7.9-3.3,12-4.6c2.2-0.7,4.5-1.2,6.8-1.6c3.1-0.6,6.3-1.1,9.4-1.5c1.2-0.2,2.4-0.2,3.6-0.2
	c3.9,0,7.7,0,11.6,0.2c1.8,0.1,3.6,0.5,5.4,0.7c1.6,0.3,3.3,0.5,4.9,0.8c2.2,0.5,4.3,1,6.5,1.6c2.3,0.6,4.5,1.4,6.7,2.1
	c4,1.4,7.8,3.1,11.4,5.3c3,1.8,6,3.6,8.8,5.7c4.6,3.4,8.7,7.3,12.3,11.7c2,2.4,4,4.9,5.7,7.6c3.2,4.9,5.8,10.1,7.8,15.5
	c1.5,4.1,2.7,8.2,3.6,12.5c1.7,7.9,1.7,16,1.4,24c-0.1,3.4-0.5,6.7-1,10c-0.4,2.8-1,5.6-1.6,8.4c-1,4.1-2,8.1-3.2,12.1
	c-1,3.4-2.4,6.8-3.6,10.1c-3.4,8.9-7.6,17.4-12,25.7c-2.7,5-5.5,10-8.4,14.9c-3.2,5.3-6.6,10.5-10.1,15.7c-2.9,4.2-6,8.3-9,12.4
	c-2.7,3.6-5.4,7.1-8.2,10.6c-1.9,2.4-3.9,4.8-6,7.2c-3.1,3.7-6.3,7.4-9.4,11c-1.1,1.3-2.3,2.6-3.4,3.8c-1.8,2-3.6,3.9-5.5,5.9
	c-2.1,2.3-4.3,4.6-6.5,6.8c-2.1,2.2-4.1,4.4-6.2,6.6c-18.6,18.8-37.3,37.5-55.9,56.3c-1,1-0.9,0.9-2.1,0.3
	c-4.8-2.7-9.3-5.9-13.5-9.3c-2.4-1.9-4.7-4-6.9-6.1c-5.3-5.1-10.6-10.3-15.8-15.5c-7.4-7.4-14.6-14.9-21.9-22.3
	c-2.9-2.9-5.7-5.9-8.5-8.8c-1.8-1.8-3.5-3.7-5.3-5.6c-2.7-2.9-5.4-5.9-8.1-8.9c-2.6-2.9-5.2-5.7-7.7-8.7c-3.4-4-6.7-7.9-10-12
	c-3.6-4.5-7.2-8.9-10.6-13.6c-4.1-5.6-8.1-11.3-12-17.1c-3.5-5.4-6.9-10.9-10.1-16.5c-3.2-5.7-6.2-11.5-9-17.4
	c-2.5-5.2-4.6-10.5-6.7-15.9c-1.3-3.2-2.3-6.4-3.3-9.7c-1.1-3.5-2.1-7-2.9-10.5c-0.9-4.2-1.6-8.4-2.3-12.6
	c-1.1-6.9-1.3-13.9-0.9-20.9c0.2-2.9,0.7-5.8,1.1-8.6c0.3-1.8,0.5-3.6,1-5.4c0.6-2.2,1.3-4.4,1.9-6.6c1.4-4.7,3.5-9.1,5.8-13.4
	c1.9-3.5,4-6.8,6.6-9.8c1.9-2.2,3.8-4.4,5.8-6.5c4.4-4.5,9.4-8.3,14.8-11.5c3.1-1.8,6.3-3.6,9.6-5c3.2-1.4,6.6-2.6,10-3.7
	c3.3-1,6.7-1.9,10.2-2.6c7-1.3,14-1.8,21.1-1.3c2.8,0.2,5.6,0.6,8.4,1.1c2.4,0.4,4.9,0.8,7.2,1.5c2.9,0.8,5.7,1.7,8.4,2.9
	c3.5,1.5,6.9,3.2,10.2,5.1c2.4,1.4,4.6,3.1,6.8,4.8c3.8,2.7,6.9,6.1,10.1,9.5c2.3,2.5,4.4,5.2,6.6,7.9c2.3,2.9,4.6,5.8,6.9,8.7
	C166.1,76.9,166.4,77.1,166.7,77.5z M166.6,318.6c0.5-0.4,0.7-0.6,0.8-0.7c9.2-8.9,18.5-17.7,27.7-26.6
	c11.9-11.5,23.3-23.4,34.4-35.6c8.2-9.1,16.2-18.5,23.7-28.2c11.4-14.7,21.7-30.1,30.6-46.4c5.9-10.7,11.1-21.8,14.8-33.5
	c2.9-9.2,4.9-18.6,5.3-28.3c0.2-6.8-0.6-13.4-2.4-20c-3.9-14.4-11.8-26-23.8-34.8c-10.3-7.5-22.1-10.8-34.7-11.4
	c-5.9-0.3-11.7,0-17.5,1.2c-3.4,0.7-6.9,1.4-10.2,2.6c-7.6,2.8-13.9,7.6-19.4,13.4c-5.6,5.8-10.2,12.3-14.4,19.1
	c-4.8,7.8-9.4,15.6-14.1,23.4c-0.2,0.3-0.3,0.5-0.5,0.8c-0.2-0.4-0.4-0.6-0.5-0.8c-4.8-7.8-9.6-15.7-14.5-23.5
	c-5.7-9.1-12.1-17.8-20.5-24.7c-2.5-2-5-4.1-7.8-5.5c-7.1-3.6-14.8-5.4-22.7-6c-5.7-0.4-11.4-0.1-17.1,0.8c-8.2,1.4-16,4.1-23.2,8.3
	C49,68.8,40.3,78.2,35.4,90.9c-2.2,5.9-3,12.1-3.4,18.3c-0.3,4.5-0.2,9.1,0,13.6c0.1,5.2,0.9,10.3,2,15.3
	c2.4,11.8,6.4,23.2,11.4,34.1c5.4,11.7,12,22.6,19.2,33.2c10.2,14.9,21.3,29,33.4,42.4c8.1,9,16.3,18,24.8,26.7
	c14.1,14.4,28.6,28.5,42.9,42.8C166,317.7,166.3,318.1,166.6,318.6z"/>
</svg>
